<svg xmlns="http://www.w3.org/2000/svg" viewBox="0 0 480 360" fill="none">
  <defs>
    <linearGradient id="grad" x1="0%" y1="0%" x2="100%" y2="100%">
      <stop offset="0%" stop-color="#00D4FF"/>
      <stop offset="100%" stop-color="#0066FF"/>
    </linearGradient>
    <linearGradient id="gradFade" x1="0%" y1="0%" x2="100%" y2="100%">
      <stop offset="0%" stop-color="#00D4FF" stop-opacity="0.3"/>
      <stop offset="100%" stop-color="#0066FF" stop-opacity="0.1"/>
    </linearGradient>
  </defs>
  <rect width="480" height="360" fill="#050508" rx="16"/>
  
  <!-- Mirror/vanity -->
  <ellipse cx="240" cy="140" rx="80" ry="90" fill="url(#gradFade)" stroke="#ec4899" stroke-width="2" opacity="0.5"/>
  <ellipse cx="240" cy="140" rx="60" ry="70" fill="url(#gradFade)" stroke="#ec4899" stroke-width="1" opacity="0.3"/>
  <!-- Sparkles -->
  <circle cx="160" cy="90" r="4" fill="#ec4899" opacity="0.6"/>
  <circle cx="320" cy="100" r="3" fill="#00D4FF" opacity="0.5"/>
  <circle cx="140" cy="200" r="3" fill="#a855f7" opacity="0.4"/>
  <circle cx="340" cy="180" r="4" fill="#ec4899" opacity="0.5"/>
  <!-- Leaf/wellness -->
  <path d="M200 260 Q220 230 250 260 Q220 290 200 260Z" fill="url(#gradFade)" stroke="#14b8a6" stroke-width="1.5" opacity="0.4"/>
  <path d="M260 270 Q280 240 310 270 Q280 300 260 270Z" fill="url(#gradFade)" stroke="#14b8a6" stroke-width="1.5" opacity="0.3"/>
  <!-- Phone -->
  <rect x="370" y="240" width="55" height="85" rx="8" fill="url(#gradFade)" stroke="url(#grad)" stroke-width="1.5"/>
  <circle cx="397" cy="265" r="8" fill="#00D4FF" opacity="0.8"/>
  <text x="397" y="269" text-anchor="middle" fill="#fff" font-size="9" font-weight="bold">AI</text>

</svg>